<?xml version="1.0" encoding="UTF-8" standalone="no"?>
<!-- Created with Inkscape (http://www.inkscape.org/) -->

<svg
   xmlns:dc="http://purl.org/dc/elements/1.1/"
   xmlns:cc="http://creativecommons.org/ns#"
   xmlns:rdf="http://www.w3.org/1999/02/22-rdf-syntax-ns#"
   xmlns:svg="http://www.w3.org/2000/svg"
   xmlns="http://www.w3.org/2000/svg"
   version="1.1"
   width="200"
   height="200"
   id="svg2">
  <defs
     id="defs4" />
  <metadata
     id="metadata7">
    <rdf:RDF>
      <cc:Work
         rdf:about="">
        <dc:format>image/svg+xml</dc:format>
        <dc:type
           rdf:resource="http://purl.org/dc/dcmitype/StillImage" />
        <dc:title></dc:title>
      </cc:Work>
    </rdf:RDF>
  </metadata>
  <g
     transform="translate(0,-852.36218)"
     id="layer1">
    <g
       id="text2985"
       style="font-size:200px;font-style:normal;font-weight:normal;line-height:125%;letter-spacing:0px;word-spacing:0px;fill:#000000;fill-opacity:1;stroke:none;font-family:Segoe WP;-inkscape-font-specification:Segoe WP">
      <path
         d="m 67.999998,914.66219 0,-53.4 -17,0 0,182.20001 17,0 0,-53.20001 0.4,0 c 1.866634,3.06668 4.133299,5.66668 6.8,7.8 2.79996,2.00001 5.73329,3.60001 8.8,4.80001 3.066618,1.2 6.133281,2.0667 9.2,2.6 3.199942,0.5333 6.066605,0.8 8.600002,0.8 7.86659,0 14.73325,-1.4 20.6,-4.2 5.99991,-2.8 10.93324,-6.6 14.8,-11.40001 3.99989,-4.93331 6.93323,-10.66664 8.8,-17.2 1.99989,-6.53329 2.99989,-13.46662 3,-20.8 -1.1e-4,-7.33327 -1.00011,-14.2666 -3,-20.8 -2.00011,-6.53325 -5.0001,-12.26658 -9,-17.2 -3.86676,-5.06657 -8.80009,-9.06656 -14.8,-12 -5.86675,-2.93322 -12.80007,-4.39989 -20.8,-4.4 -7.200058,1.1e-4 -13.800052,1.33344 -19.800002,4 -6.000038,2.53344 -10.400033,6.66677 -13.2,12.4 l -0.4,0 M 131,951.46219 c -9e-5,5.06672 -0.53343,10.00005 -1.6,14.8 -1.06676,4.80004 -2.80009,9.0667 -5.2,12.8 -2.40009,3.73336 -5.60008,6.73336 -9.6,9 -3.86674,2.26669 -8.7334,3.40002 -14.600002,3.4 -5.866723,2e-5 -10.866718,-1.06665 -15,-3.2 -4.133376,-2.26664 -7.533373,-5.19997 -10.2,-8.8 -2.533368,-3.59997 -4.400032,-7.7333 -5.6,-12.4 -1.20003,-4.79995 -1.800029,-9.73328 -1.8,-14.8 -2.9e-5,-4.79994 0.533303,-9.53327 1.6,-14.2 1.199968,-4.66659 3.066633,-8.79992 5.6,-12.4 2.533294,-3.73325 5.799958,-6.73324 9.8,-9 3.99995,-2.26657 8.866611,-3.3999 14.6,-3.4 5.466602,10e-5 10.199932,1.06676 14.200002,3.2 4.13325,2.13342 7.46658,5.00009 10,8.6 2.66658,3.60008 4.59991,7.73341 5.8,12.4 1.33324,4.5334 1.99991,9.20006 2,14"
         id="path2990"
         style="font-variant:normal;font-stretch:normal;font-family:Helvetica Neue;-inkscape-font-specification:Helvetica Neue" />
    </g>
  </g>
</svg>
